<?xml version="1.0" standalone="no"?>
<!DOCTYPE svg PUBLIC "-//W3C//DTD SVG 20010904//EN"
 "http://www.w3.org/TR/2001/REC-SVG-20010904/DTD/svg10.dtd">
<svg version="1.0" xmlns="http://www.w3.org/2000/svg"
 width="1300.000000pt" height="1300.000000pt" viewBox="0 0 1300.000000 1300.000000"
 preserveAspectRatio="xMidYMid meet">
<metadata>
Created by potrace 1.14, written by Peter Selinger 2001-2017
</metadata>
<g transform="translate(0.000000,1300.000000) scale(0.100000,-0.100000)"
fill="#000000" stroke="none">
<path d="M0 4913 l0 -1080 503 -6 c276 -4 1215 -7 2087 -7 1752 0 1610 -5
1648 63 16 30 17 102 20 1015 2 902 1 986 -14 1018 -35 73 164 66 -2154 72
l-2090 4 0 -1079z m3431 -706 c67 -44 88 -135 47 -197 -37 -54 -73 -75 -128
-75 -55 0 -91 21 -127 75 -63 91 12 220 127 220 32 0 58 -7 81 -23z m426 -20
c31 -30 37 -44 41 -90 7 -87 -37 -147 -120 -162 -78 -15 -159 44 -173 124 -5
33 -2 51 17 88 31 62 74 86 146 80 45 -3 59 -9 89 -40z"/>
<path d="M4622 2982 c-97 -34 -147 -142 -108 -235 19 -46 79 -95 131 -108 l45
-11 0 -689 c0 -686 0 -689 -20 -689 -30 0 -91 -27 -118 -53 -54 -50 -71 -141
-39 -203 20 -39 65 -80 102 -94 46 -18 3586 -28 3638 -11 80 27 129 92 129
171 0 94 -80 180 -168 180 l-24 0 0 568 c0 312 3 624 7 693 l6 127 36 6 c108
17 179 141 138 239 -22 51 -88 105 -139 111 -24 3 -839 7 -1811 9 -1411 2
-1775 -1 -1805 -11z m2683 -663 c112 -36 206 -128 241 -238 23 -72 16 -181
-16 -247 -32 -67 -117 -149 -187 -182 l-58 -27 -460 -5 c-253 -3 -633 -3 -845
0 l-385 5 -67 32 c-82 39 -151 106 -186 181 -23 49 -27 70 -27 147 0 78 4 97
28 146 30 63 103 136 166 168 101 52 85 51 941 45 741 -6 799 -8 855 -25z"/>
</g>
</svg>
